# xmcd CD database file
#
# Track frame offsets:
#	150
#	25302
#	48420
#	75677
#
# Disc length: 1342 seconds
#
# Revision: 0
# Processed by: cddbd v1.5.1PL0 Copyright (c) Steve Scherf et al.
# Submitted via: CDex 1.51
#
DISCID=28053c04
DTITLE=平松愛理 - YOU ARE MINE
DYEAR=2004
DGENRE=JPop
TTITLE0=YOU ARE MINE
TTITLE1=部屋とYシャツと私 2004
TTITLE2=YOU ARE MINE(COCONUTS GROOVE VERSION)
TTITLE3=YOU ARE MINE(Instrumental)
EXTD=YEAR: 2004
EXTT0=
EXTT1=
EXTT2=
EXTT3=
PLAYORDER=
